HIERARCHY
ROOT Hips
{
	OFFSET 0.000000 0.000000 0.000000
	CHANNELS 6 Xposition Yposition Zposition Xrotation Yrotation Zrotation
	JOINT Chest
	{
		OFFSET 0.000000 0.009282 11.569106
		CHANNELS 6 Xposition Yposition Zposition Xrotation Yrotation Zrotation
		JOINT Chest2
		{
			OFFSET 0.000000 -0.016863 9.269641
			CHANNELS 6 Xposition Yposition Zposition Xrotation Yrotation Zrotation
			JOINT Chest3
			{
				OFFSET 0.000000 0.000000 8.374491
				CHANNELS 6 Xposition Yposition Zposition Xrotation Yrotation Zrotation
				JOINT Chest4
				{
					OFFSET 0.000000 0.000000 8.374493
					CHANNELS 6 Xposition Yposition Zposition Xrotation Yrotation Zrotation
					JOINT Neck
					{
						OFFSET 0.000000 -0.000001 12.152554
						CHANNELS 6 Xposition Yposition Zposition Xrotation Yrotation Zrotation
						JOINT Head
						{
							OFFSET 0.000000 -0.040100 7.802319
							CHANNELS 6 Xposition Yposition Zposition Xrotation Yrotation Zrotation
							End Site
							{
								OFFSET 0.000000 -0.020946 14.853096
							}
						}
					}
					JOINT RightCollar
					{
						OFFSET -2.894404 0.000000 6.791374
						CHANNELS 6 Xposition Yposition Zposition Xrotation Yrotation Zrotation
						JOINT RightShoulder
						{
							OFFSET -13.574684 0.000000 0.000000
							CHANNELS 6 Xposition Yposition Zposition Xrotation Yrotation Zrotation
							JOINT RightElbow
							{
								OFFSET -23.923903 0.000000 0.000000
								CHANNELS 6 Xposition Yposition Zposition Xrotation Yrotation Zrotation
								JOINT RightWrist
								{
									OFFSET -19.846718 -0.012765 0.000000
									CHANNELS 6 Xposition Yposition Zposition Xrotation Yrotation Zrotation
									End Site
									{
										OFFSET -14.973145 0.000000 0.000000
									}
								}
							}
						}
					}
					JOINT LeftCollar
					{
						OFFSET 2.894404 0.000000 6.791374
						CHANNELS 6 Xposition Yposition Zposition Xrotation Yrotation Zrotation
						JOINT LeftShoulder
						{
							OFFSET 13.574684 0.000000 0.000000
							CHANNELS 6 Xposition Yposition Zposition Xrotation Yrotation Zrotation
							JOINT LeftElbow
							{
								OFFSET 23.923903 0.000000 0.000000
								CHANNELS 6 Xposition Yposition Zposition Xrotation Yrotation Zrotation
								JOINT LeftWrist
								{
									OFFSET 19.846718 -0.012765 0.000000
									CHANNELS 6 Xposition Yposition Zposition Xrotation Yrotation Zrotation
									End Site
									{
										OFFSET 14.973145 0.000000 0.000000
									}
								}
							}
						}
					}
				}
			}
		}
	}
	JOINT RightHip
	{
		OFFSET -9.469263 -0.004642 0.045487
		CHANNELS 6 Xposition Yposition Zposition Xrotation Yrotation Zrotation
		JOINT RightKnee
		{
			OFFSET 0.000000 -0.002666 -40.478676
			CHANNELS 6 Xposition Yposition Zposition Xrotation Yrotation Zrotation
			JOINT RightAnkle
			{
				OFFSET 0.000000 -0.049110 -35.224068
				CHANNELS 6 Xposition Yposition Zposition Xrotation Yrotation Zrotation
				JOINT RightToe
				{
					OFFSET 0.000000 -12.539530 -6.151390
					CHANNELS 6 Xposition Yposition Zposition Xrotation Yrotation Zrotation
					End Site
					{
						OFFSET 0.000000 -5.044995 -1.291870
					}
				}
			}
		}
	}
	JOINT LeftHip
	{
		OFFSET 9.469263 -0.004642 0.045487
		CHANNELS 6 Xposition Yposition Zposition Xrotation Yrotation Zrotation
		JOINT LeftKnee
		{
			OFFSET 0.000000 -0.002666 -40.478676
			CHANNELS 6 Xposition Yposition Zposition Xrotation Yrotation Zrotation
			JOINT LeftAnkle
			{
				OFFSET 0.000000 -0.049110 -35.224068
				CHANNELS 6 Xposition Yposition Zposition Xrotation Yrotation Zrotation
				JOINT LeftToe
				{
					OFFSET 0.000000 -12.539530 -6.151390
					CHANNELS 6 Xposition Yposition Zposition Xrotation Yrotation Zrotation
					End Site
					{
						OFFSET 0.000000 -5.044995 -1.291870
					}
				}
			}
		}
	}
}
MOTION
Frames: 6
Frame Time: 0.016667
-12.471628 -6.474162 83.149704 5.553337 5.406032 -119.192812 -0.000001 0.009281 11.569109 1.288350 0.371259 0.520614 -0.000000 -0.016862 9.269651 0.570532 0.173145 0.306163 -0.000000 -0.000000 8.374480 0.570533 0.173145 0.306167 -0.000000 0.000000 8.374490 0.427987 0.129574 0.229790 -0.000002 -0.000000 12.152559 16.006762 -4.348987 -16.865170 -0.000001 -0.040102 7.802306 -5.704383 -2.031722 -32.242874 -2.894405 -0.000000 6.791379 -3.153849 -0.629322 -5.032126 -13.574684 -0.000003 -0.000001 -57.017897 -56.485043 17.795245 -23.923901 0.000002 0.000004 -61.794408 -15.195086 13.092458 -19.846712 -0.012763 0.000011 -44.076047 46.245698 25.252048 2.894404 0.000001 6.791370 2.195885 11.591854 -16.176355 13.574682 0.000001 -0.000003 43.996226 59.058105 -79.888133 23.923895 0.000008 0.000004 -21.968330 41.228675 -26.241143 19.846716 -0.012752 -0.000002 -47.784895 -45.184655 -20.981354 -9.469263 -0.004643 0.045489 9.317640 -1.064825 0.666744 -0.000188 -0.002677 -40.478523 3.329289 0.585606 4.043118 -0.000071 -0.049123 -35.224304 -5.097606 -1.605517 1.516411 -0.000001 -12.539531 -6.151381 0.075472 0.040692 -0.008896 9.469261 -0.004643 0.045490 12.680774 -1.544442 1.300641 -0.000217 -0.002677 -40.478645 0.580944 0.669604 4.592879 -0.000074 -0.049130 -35.224335 -5.868635 -0.347997 1.585731 -0.000000 -12.539531 -6.151384 -0.069235 -0.077908 0.003664 
-12.472036 -6.527293 83.153206 5.484510 5.248599 -119.268572 -0.000001 0.009279 11.569113 1.175045 0.354268 0.543637 -0.000000 -0.016861 9.269633 0.520360 0.165949 0.316500 -0.000001 -0.000001 8.374479 0.520358 0.165948 0.316501 0.000000 -0.000000 8.374514 0.390353 0.124192 0.237514 0.000001 -0.000002 12.152560 16.004979 -4.330895 -16.941408 -0.000000 -0.040101 7.802328 -5.692042 -1.974703 -32.375114 -2.894403 -0.000000 6.791370 -3.220697 -0.554081 -5.056615 -13.574686 -0.000005 0.000016 -57.184683 -56.414781 18.180179 -23.923901 -0.000003 0.000003 -61.912188 -16.189553 13.510394 -19.846724 -0.012756 -0.000001 -44.344156 46.369246 25.383157 2.894405 0.000001 6.791376 2.234574 11.570387 -16.237363 13.574688 0.000002 -0.000008 43.714590 59.209141 -79.808568 23.923891 -0.000007 0.000006 -21.683397 41.915580 -27.075020 19.846716 -0.012771 -0.000008 -47.969160 -45.272673 -21.097910 -9.469264 -0.004645 0.045490 9.188127 -1.039653 0.748961 -0.000184 -0.002676 -40.478527 3.185278 0.605071 3.974804 -0.000075 -0.049123 -35.224297 -4.993846 -1.678125 1.590357 0.000001 -12.539531 -6.151375 0.078724 0.042919 -0.010714 9.469263 -0.004645 0.045492 12.515734 -1.526299 1.400658 -0.000215 -0.002674 -40.478649 0.549556 0.703396 4.591425 -0.000071 -0.049127 -35.224342 -5.846839 -0.369861 1.572905 0.000001 -12.539532 -6.151390 -0.067966 -0.086255 0.005360 
-12.469720 -6.584578 83.157455 5.410581 5.087338 -119.344524 0.000000 0.009283 11.569108 1.069353 0.333063 0.556830 -0.000001 -0.016864 9.269645 0.473669 0.157120 0.322314 0.000000 0.000001 8.374485 0.473670 0.157120 0.322313 0.000000 0.000001 8.374499 0.355337 0.117591 0.241852 0.000000 -0.000001 12.152557 16.000860 -4.311474 -17.000489 0.000000 -0.040097 7.802299 -5.686141 -1.920204 -32.475808 -2.894403 0.000001 6.791369 -3.267769 -0.487126 -5.031385 -13.574681 -0.000002 -0.000005 -57.317629 -56.307021 18.536783 -23.923904 -0.000001 0.000004 -61.954549 -17.252288 13.995199 -19.846708 -0.012749 0.000018 -44.536300 46.431138 25.426313 2.894407 0.000000 6.791372 2.264320 11.554312 -16.274953 13.574679 -0.000001 0.000001 43.552790 59.272054 -79.798234 23.923901 0.000003 -0.000004 -21.555517 42.624977 -27.909840 19.846718 -0.012752 0.000004 -48.271880 -45.370976 -21.245589 -9.469263 -0.004640 0.045493 9.046946 -1.002927 0.819151 -0.000183 -0.002676 -40.478531 3.046080 0.610990 3.933697 -0.000078 -0.049123 -35.224300 -4.889078 -1.746845 1.646652 0.000000 -12.539532 -6.151379 0.081357 0.046856 -0.013498 9.469265 -0.004641 0.045487 12.340890 -1.507957 1.492524 -0.000218 -0.002674 -40.478645 0.520072 0.742041 4.593877 -0.000071 -0.049127 -35.224339 -5.820783 -0.392290 1.565371 0.000001 -12.539531 -6.151384 -0.069197 -0.095406 0.007440 
-12.465418 -6.643582 83.161880 5.334598 4.924189 -119.418563 -0.000001 0.009282 11.569116 0.969408 0.314202 0.570930 0.000000 -0.016863 9.269631 0.429491 0.149046 0.328295 -0.000000 0.000000 8.374483 0.429491 0.149046 0.328299 -0.000002 0.000001 8.374488 0.322199 0.111554 0.246324 -0.000001 -0.000004 12.152548 15.990344 -4.294146 -17.049390 0.000001 -0.040101 7.802313 -5.693860 -1.871166 -32.558829 -2.894405 -0.000000 6.791366 -3.296201 -0.416683 -5.032875 -13.574681 0.000000 0.000020 -57.503212 -56.252492 18.820557 -23.923903 -0.000012 0.000004 -61.862943 -18.298837 14.513694 -19.846704 -0.012768 0.000002 -44.637243 46.475503 25.416872 2.894404 -0.000001 6.791368 2.282644 11.529565 -16.328375 13.574688 0.000001 0.000003 43.466299 59.329912 -79.810651 23.923897 -0.000002 -0.000001 -21.526460 43.341437 -28.722151 19.846718 -0.012754 -0.000010 -48.380422 -45.389305 -21.239945 -9.469264 -0.004641 0.045493 8.903418 -0.964325 0.921485 -0.000178 -0.002675 -40.478542 2.902635 0.613316 3.866112 -0.000080 -0.049121 -35.224297 -4.780049 -1.815385 1.703072 -0.000001 -12.539533 -6.151376 0.083253 0.050594 -0.015637 9.469263 -0.004642 0.045500 12.164610 -1.490224 1.573792 -0.000217 -0.002674 -40.478649 0.483139 0.782537 4.585190 -0.000075 -0.049127 -35.224342 -5.789530 -0.414897 1.574106 0.000000 -12.539529 -6.151386 -0.069642 -0.105739 0.009533 
-12.459581 -6.701921 83.166328 5.260068 4.763126 -119.489378 0.000000 0.009282 11.569118 0.869195 0.293297 0.583036 -0.000001 -0.016862 9.269647 0.385072 0.139893 0.333540 -0.000000 -0.000001 8.374485 0.385072 0.139893 0.333537 0.000001 0.000001 8.374493 0.288880 0.104710 0.250240 -0.000000 -0.000004 12.152543 15.973946 -4.270642 -17.089784 0.000000 -0.040099 7.802306 -5.712036 -1.812337 -32.624405 -2.894404 0.000001 6.791367 -3.364290 -0.357896 -5.048080 -13.574686 -0.000002 -0.000004 -57.707490 -56.206549 19.046175 -23.923904 -0.000003 0.000000 -61.670925 -19.309028 15.023580 -19.846720 -0.012757 -0.000004 -44.716494 46.594485 25.440696 2.894404 -0.000000 6.791362 2.315370 11.513431 -16.383858 13.574684 0.000002 0.000010 43.388377 59.452822 -79.786493 23.923889 -0.000004 -0.000001 -21.330735 44.013377 -29.601377 19.846718 -0.012755 0.000002 -48.381549 -45.313493 -21.128113 -9.469263 -0.004642 0.045500 8.766621 -0.933500 1.018387 -0.000176 -0.002675 -40.478542 2.749216 0.627201 3.798779 -0.000083 -0.049122 -35.224285 -4.664644 -1.889987 1.758930 0.000001 -12.539532 -6.151377 0.083917 0.054605 -0.016778 9.469266 -0.004642 0.045493 11.991337 -1.477888 1.664347 -0.000215 -0.002676 -40.478649 0.444985 0.824629 4.561808 -0.000074 -0.049126 -35.224339 -5.758377 -0.435011 1.563924 -0.000003 -12.539533 -6.151381 -0.068948 -0.114629 0.011404 
-12.452769 -6.757532 83.170609 5.188126 4.604633 -119.560194 0.000000 0.009282 11.569117 0.765386 0.277150 0.592174 -0.000001 -0.016863 9.269653 0.339009 0.132970 0.337123 0.000001 -0.000000 8.374494 0.339010 0.132969 0.337121 0.000003 0.000000 8.374494 0.254330 0.099539 0.252913 -0.000001 -0.000003 12.152554 15.959041 -4.246636 -17.116729 0.000000 -0.040101 7.802313 -5.729378 -1.757217 -32.665318 -2.894405 -0.000001 6.791380 -3.421609 -0.319716 -5.076165 -13.574685 -0.000001 0.000004 -57.881345 -56.168699 19.292636 -23.923904 0.000008 0.000004 -61.532819 -20.291044 15.460751 -19.846718 -0.012771 -0.000004 -44.841107 46.712278 25.540896 2.894403 -0.000001 6.791378 2.405346 11.471086 -16.417943 13.574679 0.000001 0.000003 43.263224 59.653445 -79.741687 23.923901 -0.000005 -0.000001 -20.895092 44.631355 -30.544268 19.846718 -0.012755 -0.000001 -48.359536 -45.242934 -20.999946 -9.469262 -0.004643 0.045500 8.635725 -0.903927 1.097781 -0.000172 -0.002674 -40.478565 2.591397 0.636478 3.739120 -0.000086 -0.049124 -35.224281 -4.547005 -1.960829 1.818100 -0.000000 -12.539531 -6.151377 0.084555 0.058682 -0.018042 9.469263 -0.004643 0.045496 11.819221 -1.467348 1.773091 -0.000213 -0.002675 -40.478657 0.411512 0.865924 4.533130 -0.000073 -0.049127 -35.224319 -5.729932 -0.451936 1.548734 -0.000003 -12.539533 -6.151379 -0.067803 -0.122576 0.013474 
